<svg width="182" height="42" viewBox="0 0 182 42" fill="none" xmlns="http://www.w3.org/2000/svg">
<path d="M2.59613 26V4.24H16.4841V8.08H7.01213V14.48H14.7561V18.32H7.01213V26H2.59613ZM23.5321 18.704V26H19.1161V4.24H27.5641C32.6841 4.24 35.2441 6.62933 35.2441 11.408C35.2441 14.2453 34.1775 16.336 32.0441 17.68L35.1481 26H30.3161L27.7881 18.704H23.5321ZM27.6281 14.928C28.6735 14.928 29.4521 14.608 29.9641 13.968C30.4761 13.328 30.7321 12.4853 30.7321 11.44C30.7321 10.3947 30.4548 9.56267 29.9001 8.944C29.3668 8.32533 28.5881 8.016 27.5641 8.016H23.5321V14.928H27.6281ZM38.4799 26V4.24H52.5599V8.08H42.8959V13.168H50.6399V16.944H42.8959V22.16H52.5599V26H38.4799ZM63.0466 26H55.7186V4.24H63.0466C64.924 4.24 66.4706 4.44267 67.6866 4.848C68.9026 5.232 69.8413 5.88267 70.5026 6.8C71.1853 7.696 71.6546 8.76267 71.9106 10C72.1666 11.216 72.2946 12.8053 72.2946 14.768C72.2946 16.7307 72.1773 18.3627 71.9426 19.664C71.708 20.944 71.26 22.096 70.5986 23.12C69.9586 24.1227 69.02 24.8587 67.7826 25.328C66.5453 25.776 64.9666 26 63.0466 26ZM67.6866 17.36C67.7293 16.6773 67.7506 15.7387 67.7506 14.544C67.7506 13.328 67.708 12.3573 67.6226 11.632C67.5373 10.9067 67.3346 10.2453 67.0146 9.648C66.6946 9.05067 66.2146 8.64533 65.5746 8.432C64.956 8.19733 64.1133 8.08 63.0466 8.08H60.1346V22.16H63.0466C64.6466 22.16 65.8093 21.7547 66.5346 20.944C67.1533 20.2827 67.5373 19.088 67.6866 17.36ZM82.9729 26H75.6449V4.24H82.9729C84.8502 4.24 86.3969 4.44267 87.6129 4.848C88.8289 5.232 89.7675 5.88267 90.4289 6.8C91.1115 7.696 91.5809 8.76267 91.8369 10C92.0929 11.216 92.2209 12.8053 92.2209 14.768C92.2209 16.7307 92.1035 18.3627 91.8689 19.664C91.6342 20.944 91.1862 22.096 90.5249 23.12C89.8849 24.1227 88.9462 24.8587 87.7089 25.328C86.4715 25.776 84.8929 26 82.9729 26ZM87.6129 17.36C87.6555 16.6773 87.6769 15.7387 87.6769 14.544C87.6769 13.328 87.6342 12.3573 87.5489 11.632C87.4635 10.9067 87.2609 10.2453 86.9409 9.648C86.6209 9.05067 86.1409 8.64533 85.5009 8.432C84.8822 8.19733 84.0395 8.08 82.9729 8.08H80.0609V22.16H82.9729C84.5729 22.16 85.7355 21.7547 86.4609 20.944C87.0795 20.2827 87.4635 19.088 87.6129 17.36ZM103.495 26H99.0794V17.2L92.3594 4.24H97.2554L101.255 12.912L105.255 4.24H110.151L103.495 17.2V26ZM123.027 18.704V26H118.611V4.24H127.059C132.179 4.24 134.739 6.62933 134.739 11.408C134.739 14.2453 133.672 16.336 131.539 17.68L134.643 26H129.811L127.283 18.704H123.027ZM127.123 14.928C128.168 14.928 128.947 14.608 129.459 13.968C129.971 13.328 130.227 12.4853 130.227 11.44C130.227 10.3947 129.95 9.56267 129.395 8.944C128.862 8.32533 128.083 8.016 127.059 8.016H123.027V14.928H127.123ZM142.199 18.736C142.199 21.2747 143.49 22.544 146.071 22.544C148.652 22.544 149.943 21.2747 149.943 18.736V4.24H154.359V18.64C154.359 21.3067 153.666 23.2693 152.279 24.528C150.914 25.7653 148.844 26.384 146.071 26.384C143.298 26.384 141.218 25.7653 139.831 24.528C138.466 23.2693 137.783 21.3067 137.783 18.64V4.24H142.199V18.736ZM158.432 26V4.24H162.848V26H158.432ZM166.053 8.08V4.24H180.453V8.08L171.365 21.584V22.16H180.453V26H166.053V22.192L175.141 8.656V8.08H166.053Z" fill="#323341"/>
<path d="M107.888 31.84H111.092C111.94 31.84 112.576 32.012 113 32.356C113.424 32.692 113.636 33.24 113.636 34C113.636 34.456 113.568 34.82 113.432 35.092C113.296 35.356 113.064 35.592 112.736 35.8C113.096 35.952 113.36 36.172 113.528 36.46C113.704 36.748 113.792 37.148 113.792 37.66C113.792 38.452 113.56 39.04 113.096 39.424C112.632 39.808 111.98 40 111.14 40H107.888V31.84ZM111.056 36.592H109.544V38.584H111.056C111.416 38.584 111.68 38.512 111.848 38.368C112.024 38.224 112.112 37.96 112.112 37.576C112.112 36.92 111.76 36.592 111.056 36.592ZM111.008 33.256H109.544V35.2H111.02C111.644 35.2 111.956 34.876 111.956 34.228C111.956 33.58 111.64 33.256 111.008 33.256ZM115.021 40V31.84H116.677V40H115.021ZM119.966 38.08C120.206 38.496 120.65 38.704 121.298 38.704C121.946 38.704 122.386 38.496 122.618 38.08C122.858 37.656 122.978 36.952 122.978 35.968C122.978 34.976 122.858 34.256 122.618 33.808C122.378 33.36 121.938 33.136 121.298 33.136C120.658 33.136 120.218 33.36 119.978 33.808C119.738 34.256 119.618 34.976 119.618 35.968C119.618 36.952 119.734 37.656 119.966 38.08ZM123.914 39.136C123.41 39.808 122.538 40.144 121.298 40.144C120.058 40.144 119.182 39.808 118.67 39.136C118.166 38.456 117.914 37.396 117.914 35.956C117.914 34.516 118.166 33.448 118.67 32.752C119.182 32.048 120.058 31.696 121.298 31.696C122.538 31.696 123.41 32.048 123.914 32.752C124.426 33.448 124.682 34.516 124.682 35.956C124.682 37.396 124.426 38.456 123.914 39.136ZM119.39 29.932L122.414 28.66L122.906 30.1L119.786 31.048L119.39 29.932ZM130.566 40H125.922V31.84H127.578V38.536H130.566V40ZM133.024 38.08C133.264 38.496 133.708 38.704 134.356 38.704C135.004 38.704 135.444 38.496 135.676 38.08C135.916 37.656 136.036 36.952 136.036 35.968C136.036 34.976 135.916 34.256 135.676 33.808C135.436 33.36 134.996 33.136 134.356 33.136C133.716 33.136 133.276 33.36 133.036 33.808C132.796 34.256 132.676 34.976 132.676 35.968C132.676 36.952 132.792 37.656 133.024 38.08ZM136.972 39.136C136.468 39.808 135.596 40.144 134.356 40.144C133.116 40.144 132.24 39.808 131.728 39.136C131.224 38.456 130.972 37.396 130.972 35.956C130.972 34.516 131.224 33.448 131.728 32.752C132.24 32.048 133.116 31.696 134.356 31.696C135.596 31.696 136.468 32.048 136.972 32.752C137.484 33.448 137.74 34.516 137.74 35.956C137.74 37.396 137.484 38.456 136.972 39.136ZM142.376 37.072V35.632H144.752V39.868C143.608 40.052 142.68 40.144 141.968 40.144C140.696 40.144 139.82 39.804 139.34 39.124C138.868 38.444 138.632 37.364 138.632 35.884C138.632 34.404 138.88 33.336 139.376 32.68C139.872 32.024 140.716 31.696 141.908 31.696C142.652 31.696 143.456 31.78 144.32 31.948L144.752 32.032L144.704 33.316C143.744 33.212 142.956 33.16 142.34 33.16C141.732 33.16 141.304 33.232 141.056 33.376C140.808 33.52 140.624 33.788 140.504 34.18C140.392 34.564 140.336 35.228 140.336 36.172C140.336 37.108 140.452 37.764 140.684 38.14C140.916 38.516 141.396 38.704 142.124 38.704L143.12 38.656V37.072H142.376ZM147.828 38.08C148.068 38.496 148.512 38.704 149.16 38.704C149.808 38.704 150.248 38.496 150.48 38.08C150.72 37.656 150.84 36.952 150.84 35.968C150.84 34.976 150.72 34.256 150.48 33.808C150.24 33.36 149.8 33.136 149.16 33.136C148.52 33.136 148.08 33.36 147.84 33.808C147.6 34.256 147.48 34.976 147.48 35.968C147.48 36.952 147.596 37.656 147.828 38.08ZM151.776 39.136C151.272 39.808 150.4 40.144 149.16 40.144C147.92 40.144 147.044 39.808 146.532 39.136C146.028 38.456 145.776 37.396 145.776 35.956C145.776 34.516 146.028 33.448 146.532 32.752C147.044 32.048 147.92 31.696 149.16 31.696C150.4 31.696 151.272 32.048 151.776 32.752C152.288 33.448 152.544 34.516 152.544 35.956C152.544 37.396 152.288 38.456 151.776 39.136ZM153.136 41.476L153.736 38.356H155.512L154.432 41.476H153.136ZM162.213 37.624H160.869V40H159.213V31.84H162.213C164.149 31.84 165.117 32.784 165.117 34.672C165.117 35.624 164.869 36.356 164.373 36.868C163.885 37.372 163.165 37.624 162.213 37.624ZM160.869 36.208H162.201C163.025 36.208 163.437 35.696 163.437 34.672C163.437 34.168 163.337 33.808 163.137 33.592C162.937 33.368 162.625 33.256 162.201 33.256H160.869V36.208ZM170.792 40V36.616H167.756V40H166.1V31.84H167.756V35.176H170.792V31.84H172.448V40H170.792ZM176.789 40H174.041V31.84H176.789C177.493 31.84 178.073 31.916 178.529 32.068C178.985 32.212 179.337 32.456 179.585 32.8C179.841 33.136 180.017 33.536 180.113 34C180.209 34.456 180.257 35.052 180.257 35.788C180.257 36.524 180.213 37.136 180.125 37.624C180.037 38.104 179.869 38.536 179.621 38.92C179.381 39.296 179.029 39.572 178.565 39.748C178.101 39.916 177.509 40 176.789 40ZM178.529 36.76C178.545 36.504 178.553 36.152 178.553 35.704C178.553 35.248 178.537 34.884 178.505 34.612C178.473 34.34 178.397 34.092 178.277 33.868C178.157 33.644 177.977 33.492 177.737 33.412C177.505 33.324 177.189 33.28 176.789 33.28H175.697V38.56H176.789C177.389 38.56 177.825 38.408 178.097 38.104C178.329 37.856 178.473 37.408 178.529 36.76Z" fill="#323341"/>
<line x1="2" y1="35.95" x2="105" y2="35.95" stroke="#323341" stroke-width="8.1"/>
</svg>
