<svg width="35" height="35" viewBox="0 0 35 35" fill="none" xmlns="http://www.w3.org/2000/svg">
<path d="M28.6998 2.79999H6.2998C4.3678 2.79999 2.7998 4.36799 2.7998 6.29999V28.7C2.7998 30.632 4.3678 32.2 6.2998 32.2H28.6998C30.6318 32.2 32.1998 30.632 32.1998 28.7V6.29999C32.1998 4.36799 30.6318 2.79999 28.6998 2.79999ZM11.8998 14V27.3H7.6998V14H11.8998ZM7.6998 10.129C7.6998 9.14899 8.5398 8.39999 9.7998 8.39999C11.0598 8.39999 11.8508 9.14899 11.8998 10.129C11.8998 11.109 11.1158 11.9 9.7998 11.9C8.5398 11.9 7.6998 11.109 7.6998 10.129ZM27.2998 27.3H23.0998C23.0998 27.3 23.0998 20.818 23.0998 20.3C23.0998 18.9 22.3998 17.5 20.6498 17.472H20.5938C18.8998 17.472 18.1998 18.914 18.1998 20.3C18.1998 20.937 18.1998 27.3 18.1998 27.3H13.9998V14H18.1998V15.792C18.1998 15.792 19.5508 14 22.2668 14C25.0458 14 27.2998 15.911 27.2998 19.782V27.3Z" fill="#323341"/>
</svg>
